<svg version="1.1"
     baseProfile="full"
     viewBox="0 0 140 140"
     xmlns="http://www.w3.org/2000/svg">

  <polygon points="20,0 40,0 40,10 50,10 50,40 90,40 90,10 100,10 100,0 120,0 120,10
  	130,10 130,50 140,50 140,110 130,110 130,120 120,120 120,130 110,130 110,140 30,140 30,130 20,130 20,120 10,120 10,110 0,110 0,50 10,50 10,10 20,10" stroke="none" fill="grey" />

  <polygon points="50,130 50,110 100,110 100,130 90,130 90,120 60,120 60,130" stroke="none" fill="black" />

  <polygon points="10,110 30,110 30,90 10,90" stroke="none" fill="pink" />

  <polygon points="30,70 50,70 50,90 30,90" stroke="none" fill="white" />

  <polygon points="100,70 120,70 120,90 100,90" stroke="none" fill="white" />

  <polygon points="120,90 140,90 140,110 120,110" stroke="none" fill="pink" />

  <polygon points="30,80 40,80 40,90 30,90" stroke="none" fill="green" />

	<polygon points="80,80 90,80 90,90 80,90" stroke="none" fill="black" />

	<polygon points="100,80 110,80 110,90 100,90" stroke="none" fill="green" />

</svg>
